<svg width="39" height="38" viewBox="0 0 39 38" fill="none" xmlns="http://www.w3.org/2000/svg">
<path d="M38.5 19C38.5 29.2051 30.0057 37.5 19.5 37.5C8.99427 37.5 0.5 29.2051 0.5 19C0.5 8.7949 8.99427 0.5 19.5 0.5C30.0057 0.5 38.5 8.7949 38.5 19Z" fill="#238933" stroke="white"/>
<path d="M15.2891 25H13.5508V12.959L10.5625 14.2969V12.6562L15.0156 10.7129H15.2891V25ZM27.623 18.9355C27.623 21.0319 27.3171 22.6009 26.7051 23.6426C26.0931 24.6777 25.1328 25.1953 23.8242 25.1953C22.5547 25.1953 21.6074 24.6973 20.9824 23.7012C20.3574 22.7051 20.0319 21.2077 20.0059 19.209V16.7676C20.0059 14.6908 20.3118 13.1413 20.9238 12.1191C21.5423 11.097 22.5026 10.5859 23.8047 10.5859C25.0872 10.5859 26.0345 11.071 26.6465 12.041C27.265 13.0111 27.5905 14.4792 27.623 16.4453V18.9355ZM25.8945 16.4648C25.8945 14.9609 25.7285 13.8542 25.3965 13.1445C25.0645 12.4284 24.5339 12.0703 23.8047 12.0703C23.0951 12.0703 22.5742 12.4219 22.2422 13.125C21.9102 13.8216 21.7376 14.8763 21.7246 16.2891V19.2188C21.7246 20.7161 21.8971 21.8424 22.2422 22.5977C22.5872 23.3464 23.1146 23.7207 23.8242 23.7207C24.5273 23.7207 25.0449 23.3659 25.377 22.6562C25.709 21.9466 25.8815 20.8626 25.8945 19.4043V16.4648Z" fill="white"/>
</svg>
