<svg width="55" height="53" viewBox="0 0 55 53" fill="none" xmlns="http://www.w3.org/2000/svg">
<path d="M54.5 26.5C54.5 40.8421 42.4293 52.5 27.5 52.5C12.5707 52.5 0.5 40.8421 0.5 26.5C0.5 12.1579 12.5707 0.5 27.5 0.5C42.4293 0.5 54.5 12.1579 54.5 26.5Z" fill="#238933" stroke="white"/>
<path d="M22.3496 26.0117H23.4531C24.1628 26.0117 24.7096 25.7936 25.0938 25.3574C25.4779 24.9212 25.6699 24.3255 25.6699 23.5703C25.6699 21.9036 25.0254 21.0703 23.7363 21.0703C23.1178 21.0703 22.6328 21.2949 22.2812 21.7441C21.9297 22.1934 21.7539 22.7826 21.7539 23.5117H20.0352C20.0352 22.3724 20.3802 21.4349 21.0703 20.6992C21.7669 19.957 22.6556 19.5859 23.7363 19.5859C24.8561 19.5859 25.7448 19.9375 26.4023 20.6406C27.0599 21.3372 27.3887 22.3268 27.3887 23.6094C27.3887 24.2669 27.2161 24.8822 26.8711 25.4551C26.5326 26.0215 26.0898 26.4382 25.543 26.7051C26.8841 27.1999 27.5547 28.3099 27.5547 30.0352C27.5547 31.3047 27.1999 32.3171 26.4902 33.0723C25.7871 33.821 24.8659 34.1953 23.7266 34.1953C22.6003 34.1953 21.6888 33.8405 20.9922 33.1309C20.3021 32.4147 19.957 31.4544 19.957 30.25H21.6855C21.6855 31.0052 21.8678 31.6074 22.2324 32.0566C22.597 32.4993 23.0951 32.7207 23.7266 32.7207C24.3711 32.7207 24.8822 32.5026 25.2598 32.0664C25.6439 31.6302 25.8359 30.9661 25.8359 30.0742C25.8359 28.349 25.0189 27.4863 23.3848 27.4863H22.3496V26.0117ZM37.623 27.9355C37.623 30.0319 37.3171 31.6009 36.7051 32.6426C36.0931 33.6777 35.1328 34.1953 33.8242 34.1953C32.5547 34.1953 31.6074 33.6973 30.9824 32.7012C30.3574 31.7051 30.0319 30.2077 30.0059 28.209V25.7676C30.0059 23.6908 30.3118 22.1413 30.9238 21.1191C31.5423 20.097 32.5026 19.5859 33.8047 19.5859C35.0872 19.5859 36.0345 20.071 36.6465 21.041C37.265 22.0111 37.5905 23.4792 37.623 25.4453V27.9355ZM35.8945 25.4648C35.8945 23.9609 35.7285 22.8542 35.3965 22.1445C35.0645 21.4284 34.5339 21.0703 33.8047 21.0703C33.0951 21.0703 32.5742 21.4219 32.2422 22.125C31.9102 22.8216 31.7376 23.8763 31.7246 25.2891V28.2188C31.7246 29.7161 31.8971 30.8424 32.2422 31.5977C32.5872 32.3464 33.1146 32.7207 33.8242 32.7207C34.5273 32.7207 35.0449 32.3659 35.377 31.6562C35.709 30.9466 35.8815 29.8626 35.8945 28.4043V25.4648Z" fill="white"/>
</svg>
