<svg width="22" height="22" viewBox="0 0 22 22" fill="none" xmlns="http://www.w3.org/2000/svg">
<circle cx="11" cy="11" r="10.5" fill="#A22D09" stroke="#E97878"/>
<path d="M6.7381 13.9108C6.36565 14.3186 6.39431 14.9511 6.80211 15.3235C7.20991 15.696 7.84243 15.6673 8.21487 15.2595L6.7381 13.9108ZM14.7619 8.09109C15.1344 7.68329 15.1057 7.05077 14.6979 6.67832C14.2901 6.30587 13.6576 6.33453 13.2851 6.74233L14.7619 8.09109ZM8.21487 15.2595L14.7619 8.09109L13.2851 6.74233L6.7381 13.9108L8.21487 15.2595Z" fill="white"/>
<path d="M7.93563 6.92001C7.53673 6.53804 6.90372 6.55177 6.52175 6.95067C6.13979 7.34957 6.15351 7.98258 6.55241 8.36455L7.93563 6.92001ZM13.5644 15.0789C13.9633 15.4608 14.5963 15.4471 14.9783 15.0482C15.3602 14.6493 15.3465 14.0163 14.9476 13.6343L13.5644 15.0789ZM6.55241 8.36455L13.5644 15.0789L14.9476 13.6343L7.93563 6.92001L6.55241 8.36455Z" fill="white"/>
</svg>
