<svg width="182" height="100" viewBox="0 0 182 100" fill="none" xmlns="http://www.w3.org/2000/svg">
<rect x="3" y="3" width="94" height="94" rx="22" fill="#0B4080" stroke="#D9D9D9" stroke-width="5"/>
<path d="M45.7344 58.3379H45.874V60.0244H45.7344C44.832 60.0244 44.0908 60.1963 43.5107 60.54C42.9378 60.8766 42.4902 61.3314 42.168 61.9043C41.8529 62.4701 41.6344 63.1074 41.5127 63.8164C41.391 64.5254 41.3301 65.2451 41.3301 65.9756V68.2744C41.3301 68.9691 41.3945 69.585 41.5234 70.1221C41.6595 70.652 41.835 71.0996 42.0498 71.4648C42.2718 71.8301 42.5189 72.1058 42.791 72.292C43.0703 72.4782 43.3532 72.5713 43.6396 72.5713C44.0049 72.5713 44.3271 72.4854 44.6064 72.3135C44.8929 72.1344 45.1292 71.8874 45.3154 71.5723C45.5088 71.25 45.6556 70.8704 45.7559 70.4336C45.8561 69.9967 45.9062 69.5169 45.9062 68.9941C45.9062 68.5286 45.8597 68.0811 45.7666 67.6514C45.6807 67.2145 45.5482 66.8278 45.3691 66.4912C45.1901 66.1475 44.9609 65.8789 44.6816 65.6855C44.4095 65.485 44.0837 65.3848 43.7041 65.3848C43.2744 65.3848 42.8734 65.5208 42.501 65.793C42.1357 66.0579 41.835 66.4089 41.5986 66.8457C41.3623 67.2754 41.2227 67.7445 41.1797 68.2529L40.2021 68.2422C40.3024 67.4401 40.4707 66.7562 40.707 66.1904C40.9434 65.6175 41.2298 65.152 41.5664 64.7939C41.9102 64.4287 42.2897 64.1637 42.7051 63.999C43.1204 63.8271 43.5573 63.7412 44.0156 63.7412C44.6816 63.7412 45.251 63.888 45.7236 64.1816C46.2035 64.4753 46.5938 64.8691 46.8945 65.3633C47.2025 65.8503 47.4281 66.4017 47.5713 67.0176C47.7145 67.6263 47.7861 68.2529 47.7861 68.8975C47.7861 69.6351 47.6966 70.3262 47.5176 70.9707C47.3457 71.6152 47.0879 72.181 46.7441 72.668C46.4004 73.1549 45.9671 73.5345 45.4443 73.8066C44.9287 74.0788 44.3271 74.2148 43.6396 74.2148C42.9092 74.2148 42.279 74.043 41.749 73.6992C41.2191 73.3483 40.7786 72.8828 40.4277 72.3027C40.084 71.7227 39.8298 71.0781 39.665 70.3691C39.5003 69.6602 39.418 68.9404 39.418 68.21V67.2754C39.418 66.1725 39.4967 65.0911 39.6543 64.0312C39.8118 62.9714 40.109 62.0117 40.5459 61.1523C40.9899 60.293 41.6273 59.609 42.458 59.1006C43.2959 58.5921 44.388 58.3379 45.7344 58.3379ZM58.4854 64.9336V67.3184C58.4854 68.6003 58.3851 69.6816 58.1846 70.5625C57.9912 71.4434 57.7119 72.1523 57.3467 72.6895C56.9814 73.2266 56.541 73.6169 56.0254 73.8604C55.5169 74.0967 54.944 74.2148 54.3066 74.2148C53.8053 74.2148 53.3363 74.1396 52.8994 73.9893C52.4697 73.8389 52.083 73.599 51.7393 73.2695C51.3955 72.9329 51.1019 72.4961 50.8584 71.959C50.6149 71.4219 50.4287 70.7702 50.2998 70.0039C50.1709 69.2376 50.1064 68.3424 50.1064 67.3184V64.9336C50.1064 63.6517 50.2067 62.5775 50.4072 61.7109C50.6077 60.8444 50.8906 60.1497 51.2559 59.627C51.6283 59.097 52.0687 58.7174 52.5771 58.4883C53.0928 58.2591 53.6657 58.1445 54.2959 58.1445C54.8044 58.1445 55.2734 58.2197 55.7031 58.3701C56.14 58.5133 56.5267 58.7461 56.8633 59.0684C57.207 59.3835 57.5007 59.806 57.7441 60.3359C57.9876 60.8587 58.1702 61.4997 58.292 62.2588C58.4209 63.0179 58.4854 63.9095 58.4854 64.9336ZM56.5947 67.6406V64.6006C56.5947 63.8988 56.5625 63.2829 56.498 62.7529C56.4336 62.2158 56.3405 61.7575 56.2188 61.3779C56.097 60.9984 55.9395 60.6904 55.7461 60.4541C55.5599 60.2178 55.3451 60.0459 55.1016 59.9385C54.8581 59.8239 54.5895 59.7666 54.2959 59.7666C53.9307 59.7666 53.6048 59.8561 53.3184 60.0352C53.0391 60.207 52.7992 60.4827 52.5986 60.8623C52.4053 61.2419 52.2585 61.7396 52.1582 62.3555C52.0579 62.9714 52.0078 63.7197 52.0078 64.6006V67.6406C52.0078 68.3424 52.04 68.9619 52.1045 69.499C52.1761 70.0361 52.2728 70.5016 52.3945 70.8955C52.5234 71.2822 52.681 71.6009 52.8672 71.8516C53.0534 72.1022 53.2682 72.2884 53.5117 72.4102C53.7552 72.5247 54.0202 72.582 54.3066 72.582C54.6862 72.582 55.0156 72.4889 55.2949 72.3027C55.5814 72.1165 55.8213 71.8265 56.0146 71.4326C56.208 71.0316 56.3512 70.5195 56.4443 69.8965C56.5446 69.2663 56.5947 68.5143 56.5947 67.6406Z" fill="white"/>
<path d="M15.4395 38.8418L18.8574 26.7812H20.8105L16.3965 41H15.0195L15.4395 38.8418ZM12.373 26.7812L15.7617 38.8418L16.2109 41H14.834L10.4199 26.7812H12.373ZM24.3652 30.4336V41H22.6465V30.4336H24.3652ZM22.5488 27.6309C22.5488 27.3379 22.6302 27.0905 22.793 26.8887C22.9557 26.6868 23.1999 26.5859 23.5254 26.5859C23.8509 26.5859 24.0951 26.6868 24.2578 26.8887C24.4271 27.0905 24.5117 27.3379 24.5117 27.6309C24.5117 27.9108 24.4271 28.1517 24.2578 28.3535C24.0951 28.5488 23.8509 28.6465 23.5254 28.6465C23.1999 28.6465 22.9557 28.5488 22.793 28.3535C22.6302 28.1517 22.5488 27.9108 22.5488 27.6309ZM28.8281 32.6895V41H27.0996V30.4336H28.7305L28.8281 32.6895ZM28.4082 35.3164L27.7051 35.2871C27.6986 34.5645 27.7799 33.8971 27.9492 33.2852C28.125 32.6667 28.3724 32.1296 28.6914 31.6738C29.0169 31.2181 29.4043 30.8665 29.8535 30.6191C30.3027 30.3652 30.8008 30.2383 31.3477 30.2383C31.7773 30.2383 32.168 30.3099 32.5195 30.4531C32.8711 30.5898 33.1706 30.8112 33.418 31.1172C33.6654 31.4232 33.8542 31.8203 33.9844 32.3086C34.1211 32.7904 34.1895 33.3796 34.1895 34.0762V41H32.4609V34.0566C32.4609 33.5033 32.3991 33.0605 32.2754 32.7285C32.1582 32.39 31.9759 32.1458 31.7285 31.9961C31.4876 31.8398 31.1816 31.7617 30.8105 31.7617C30.472 31.7617 30.1562 31.8561 29.8633 32.0449C29.5703 32.2337 29.3132 32.4941 29.0918 32.8262C28.877 33.1582 28.7077 33.5391 28.584 33.9688C28.4668 34.3919 28.4082 34.8411 28.4082 35.3164ZM41.9629 39.1934V33.4609C41.9629 33.0443 41.8978 32.709 41.7676 32.4551C41.6439 32.2012 41.4551 32.0156 41.2012 31.8984C40.9538 31.7812 40.6413 31.7227 40.2637 31.7227C39.8991 31.7227 39.5833 31.7975 39.3164 31.9473C39.056 32.097 38.8542 32.2956 38.7109 32.543C38.5742 32.7904 38.5059 33.0638 38.5059 33.3633H36.7773C36.7773 32.9857 36.8587 32.6113 37.0215 32.2402C37.1908 31.8691 37.4316 31.5339 37.7441 31.2344C38.0566 30.9284 38.431 30.6875 38.8672 30.5117C39.3099 30.3294 39.8047 30.2383 40.3516 30.2383C41.0026 30.2383 41.5788 30.3457 42.0801 30.5605C42.5814 30.7689 42.9753 31.1107 43.2617 31.5859C43.5482 32.0612 43.6914 32.6927 43.6914 33.4805V38.6953C43.6914 39.0469 43.7174 39.4212 43.7695 39.8184C43.8281 40.2155 43.9095 40.5573 44.0137 40.8438V41H42.2266C42.1419 40.7917 42.0768 40.515 42.0312 40.1699C41.9857 39.8184 41.9629 39.4928 41.9629 39.1934ZM42.2363 34.5938L42.2559 35.8633H41.0547C40.6445 35.8633 40.2702 35.9089 39.9316 36C39.5996 36.0911 39.3132 36.2246 39.0723 36.4004C38.8314 36.5697 38.6458 36.7812 38.5156 37.0352C38.3919 37.2891 38.3301 37.5788 38.3301 37.9043C38.3301 38.3275 38.3887 38.666 38.5059 38.9199C38.623 39.1673 38.7988 39.3464 39.0332 39.457C39.2676 39.5677 39.5638 39.623 39.9219 39.623C40.3581 39.623 40.7422 39.5221 41.0742 39.3203C41.4062 39.1185 41.6634 38.8743 41.8457 38.5879C42.0345 38.3014 42.1224 38.0345 42.1094 37.7871L42.4902 38.5977C42.4642 38.8516 42.3796 39.1283 42.2363 39.4277C42.0996 39.7207 41.9076 40.0039 41.6602 40.2773C41.4128 40.5443 41.1198 40.7656 40.7812 40.9414C40.4492 41.1107 40.0749 41.1953 39.6582 41.1953C39.0462 41.1953 38.5091 41.0781 38.0469 40.8438C37.5911 40.6094 37.2363 40.2643 36.9824 39.8086C36.7285 39.3529 36.6016 38.7897 36.6016 38.1191C36.6016 37.6113 36.6895 37.1426 36.8652 36.7129C37.041 36.2832 37.3014 35.9121 37.6465 35.5996C37.9915 35.2806 38.4245 35.0332 38.9453 34.8574C39.4727 34.6816 40.0814 34.5938 40.7715 34.5938H42.2363ZM48.6719 39.9062L51.0254 30.4336H52.8613L49.375 42.6309C49.2904 42.8913 49.1764 43.1712 49.0332 43.4707C48.8965 43.7767 48.7207 44.0664 48.5059 44.3398C48.291 44.6133 48.0339 44.8346 47.7344 45.0039C47.4349 45.1797 47.0833 45.2676 46.6797 45.2676C46.556 45.2676 46.3965 45.248 46.2012 45.209C46.0124 45.1699 45.8757 45.1374 45.791 45.1113V43.6465C45.8301 43.653 45.8919 43.6595 45.9766 43.666C46.0612 43.679 46.123 43.6855 46.1621 43.6855C46.5007 43.6855 46.7871 43.6302 47.0215 43.5195C47.2624 43.4154 47.4674 43.2363 47.6367 42.9824C47.806 42.735 47.9492 42.3932 48.0664 41.957L48.6719 39.9062ZM47.1484 30.4336L49.248 38.6367L49.6973 40.541L48.4668 41.2051L45.2637 30.4336H47.1484ZM66.8457 26.7812V27.7969L61.9531 41H60.1367L65.0293 28.2656H58.6914V26.7812H66.8457ZM76.4746 32.7578V34.9258C76.4746 36.0911 76.3835 37.0742 76.2012 37.875C76.0254 38.6758 75.7715 39.3203 75.4395 39.8086C75.1074 40.2969 74.707 40.6517 74.2383 40.873C73.776 41.0879 73.2552 41.1953 72.6758 41.1953C72.2201 41.1953 71.7936 41.127 71.3965 40.9902C71.0059 40.8535 70.6543 40.6354 70.3418 40.3359C70.0293 40.0299 69.7624 39.6328 69.541 39.1445C69.3197 38.6562 69.1504 38.0638 69.0332 37.3672C68.916 36.6706 68.8574 35.8568 68.8574 34.9258V32.7578C68.8574 31.5924 68.9486 30.6159 69.1309 29.8281C69.3132 29.0404 69.5703 28.4089 69.9023 27.9336C70.2409 27.4518 70.6413 27.1068 71.1035 26.8984C71.5723 26.6901 72.0931 26.5859 72.666 26.5859C73.1283 26.5859 73.5547 26.6543 73.9453 26.791C74.3424 26.9212 74.694 27.1328 75 27.4258C75.3125 27.7122 75.5794 28.0964 75.8008 28.5781C76.0221 29.0534 76.1882 29.6361 76.2988 30.3262C76.416 31.0163 76.4746 31.8268 76.4746 32.7578ZM74.7559 35.2188V32.4551C74.7559 31.8171 74.7266 31.2572 74.668 30.7754C74.6094 30.2871 74.5247 29.8704 74.4141 29.5254C74.3034 29.1803 74.1602 28.9004 73.9844 28.6855C73.8151 28.4707 73.6198 28.3145 73.3984 28.2168C73.1771 28.1126 72.9329 28.0605 72.666 28.0605C72.334 28.0605 72.0378 28.1419 71.7773 28.3047C71.5234 28.4609 71.3053 28.7116 71.123 29.0566C70.9473 29.4017 70.8138 29.8542 70.7227 30.4141C70.6315 30.974 70.5859 31.6543 70.5859 32.4551V35.2188C70.5859 35.8568 70.6152 36.4199 70.6738 36.9082C70.7389 37.3965 70.8268 37.8197 70.9375 38.1777C71.0547 38.5293 71.1979 38.819 71.3672 39.0469C71.5365 39.2747 71.7318 39.444 71.9531 39.5547C72.1745 39.6589 72.4154 39.7109 72.6758 39.7109C73.0208 39.7109 73.3203 39.6263 73.5742 39.457C73.8346 39.2878 74.0527 39.0241 74.2285 38.666C74.4043 38.3014 74.5345 37.8359 74.6191 37.2695C74.7103 36.6966 74.7559 36.013 74.7559 35.2188ZM79.0234 40.043C79.0234 39.737 79.1178 39.4798 79.3066 39.2715C79.502 39.0566 79.7819 38.9492 80.1465 38.9492C80.5111 38.9492 80.7878 39.0566 80.9766 39.2715C81.1719 39.4798 81.2695 39.737 81.2695 40.043C81.2695 40.3424 81.1719 40.5964 80.9766 40.8047C80.7878 41.013 80.5111 41.1172 80.1465 41.1172C79.7819 41.1172 79.502 41.013 79.3066 40.8047C79.1178 40.5964 79.0234 40.3424 79.0234 40.043ZM84.2969 40.043C84.2969 39.737 84.3913 39.4798 84.5801 39.2715C84.7754 39.0566 85.0553 38.9492 85.4199 38.9492C85.7845 38.9492 86.0612 39.0566 86.25 39.2715C86.4453 39.4798 86.543 39.737 86.543 40.043C86.543 40.3424 86.4453 40.5964 86.25 40.8047C86.0612 41.013 85.7845 41.1172 85.4199 41.1172C85.0553 41.1172 84.7754 41.013 84.5801 40.8047C84.3913 40.5964 84.2969 40.3424 84.2969 40.043ZM89.5703 40.043C89.5703 39.737 89.6647 39.4798 89.8535 39.2715C90.0488 39.0566 90.3288 38.9492 90.6934 38.9492C91.0579 38.9492 91.3346 39.0566 91.5234 39.2715C91.7188 39.4798 91.8164 39.737 91.8164 40.043C91.8164 40.3424 91.7188 40.5964 91.5234 40.8047C91.3346 41.013 91.0579 41.1172 90.6934 41.1172C90.3288 41.1172 90.0488 41.013 89.8535 40.8047C89.6647 40.5964 89.5703 40.3424 89.5703 40.043Z" fill="white"/>
<path d="M151.5 59.5C151.5 73.8421 139.429 85.5 124.5 85.5C109.571 85.5 97.5 73.8421 97.5 59.5C97.5 45.1579 109.571 33.5 124.5 33.5C139.429 33.5 151.5 45.1579 151.5 59.5Z" fill="#238933" stroke="white"/>
<path d="M119.35 59.0117H120.453C121.163 59.0117 121.71 58.7936 122.094 58.3574C122.478 57.9212 122.67 57.3255 122.67 56.5703C122.67 54.9036 122.025 54.0703 120.736 54.0703C120.118 54.0703 119.633 54.2949 119.281 54.7441C118.93 55.1934 118.754 55.7826 118.754 56.5117H117.035C117.035 55.3724 117.38 54.4349 118.07 53.6992C118.767 52.957 119.656 52.5859 120.736 52.5859C121.856 52.5859 122.745 52.9375 123.402 53.6406C124.06 54.3372 124.389 55.3268 124.389 56.6094C124.389 57.2669 124.216 57.8822 123.871 58.4551C123.533 59.0215 123.09 59.4382 122.543 59.7051C123.884 60.1999 124.555 61.3099 124.555 63.0352C124.555 64.3047 124.2 65.3171 123.49 66.0723C122.787 66.821 121.866 67.1953 120.727 67.1953C119.6 67.1953 118.689 66.8405 117.992 66.1309C117.302 65.4147 116.957 64.4544 116.957 63.25H118.686C118.686 64.0052 118.868 64.6074 119.232 65.0566C119.597 65.4993 120.095 65.7207 120.727 65.7207C121.371 65.7207 121.882 65.5026 122.26 65.0664C122.644 64.6302 122.836 63.9661 122.836 63.0742C122.836 61.349 122.019 60.4863 120.385 60.4863H119.35V59.0117ZM134.623 60.9355C134.623 63.0319 134.317 64.6009 133.705 65.6426C133.093 66.6777 132.133 67.1953 130.824 67.1953C129.555 67.1953 128.607 66.6973 127.982 65.7012C127.357 64.7051 127.032 63.2077 127.006 61.209V58.7676C127.006 56.6908 127.312 55.1413 127.924 54.1191C128.542 53.097 129.503 52.5859 130.805 52.5859C132.087 52.5859 133.035 53.071 133.646 54.041C134.265 55.0111 134.59 56.4792 134.623 58.4453V60.9355ZM132.895 58.4648C132.895 56.9609 132.729 55.8542 132.396 55.1445C132.064 54.4284 131.534 54.0703 130.805 54.0703C130.095 54.0703 129.574 54.4219 129.242 55.125C128.91 55.8216 128.738 56.8763 128.725 58.2891V61.2188C128.725 62.7161 128.897 63.8424 129.242 64.5977C129.587 65.3464 130.115 65.7207 130.824 65.7207C131.527 65.7207 132.045 65.3659 132.377 64.6562C132.709 63.9466 132.882 62.8626 132.895 61.4043V58.4648Z" fill="white"/>
<path d="M181.5 60C181.5 70.2051 173.006 78.5 162.5 78.5C151.994 78.5 143.5 70.2051 143.5 60C143.5 49.7949 151.994 41.5 162.5 41.5C173.006 41.5 181.5 49.7949 181.5 60Z" fill="#238933" stroke="white"/>
<path d="M158.289 66H156.551V53.959L153.562 55.2969V53.6562L158.016 51.7129H158.289V66ZM170.623 59.9355C170.623 62.0319 170.317 63.6009 169.705 64.6426C169.093 65.6777 168.133 66.1953 166.824 66.1953C165.555 66.1953 164.607 65.6973 163.982 64.7012C163.357 63.7051 163.032 62.2077 163.006 60.209V57.7676C163.006 55.6908 163.312 54.1413 163.924 53.1191C164.542 52.097 165.503 51.5859 166.805 51.5859C168.087 51.5859 169.035 52.071 169.646 53.041C170.265 54.0111 170.59 55.4792 170.623 57.4453V59.9355ZM168.895 57.4648C168.895 55.9609 168.729 54.8542 168.396 54.1445C168.064 53.4284 167.534 53.0703 166.805 53.0703C166.095 53.0703 165.574 53.4219 165.242 54.125C164.91 54.8216 164.738 55.8763 164.725 57.2891V60.2188C164.725 61.7161 164.897 62.8424 165.242 63.5977C165.587 64.3464 166.115 64.7207 166.824 64.7207C167.527 64.7207 168.045 64.3659 168.377 63.6562C168.709 62.9466 168.882 61.8626 168.895 60.4043V57.4648Z" fill="white"/>
</svg>
