<svg width="165" height="55" viewBox="0 0 165 55" fill="none" xmlns="http://www.w3.org/2000/svg">
<rect x="1.07143" y="1.07143" width="162.857" height="52.5" rx="7.5" fill="url(#paint0_linear_1_1161)"/>
<rect x="1.07143" y="1.07143" width="162.857" height="52.5" rx="7.5" stroke="#966B24" stroke-width="2.14286"/>
<path d="M60.1207 33.1215C60.1207 32.6862 60.0537 32.2956 59.9198 31.9496C59.797 31.5925 59.5626 31.2688 59.2166 30.9786C58.8707 30.6773 58.3852 30.3815 57.7602 30.0913C57.1352 29.8012 56.326 29.4998 55.3327 29.1873C54.2278 28.8302 53.1787 28.4284 52.1854 27.982C51.2032 27.5355 50.3327 27.0166 49.5738 26.425C48.826 25.8224 48.2345 25.1248 47.7992 24.3324C47.3751 23.54 47.1631 22.6192 47.1631 21.5701C47.1631 20.5545 47.3863 19.6337 47.8327 18.8079C48.2791 17.9708 48.9041 17.2565 49.7077 16.665C50.5113 16.0623 51.4599 15.5991 52.5537 15.2755C53.6586 14.9518 54.8695 14.79 56.1865 14.79C57.9834 14.79 59.5515 15.1137 60.8907 15.761C62.23 16.4083 63.268 17.2956 64.0046 18.4228C64.7524 19.55 65.1262 20.8391 65.1262 22.29H60.1374C60.1374 21.5757 59.9867 20.9507 59.6854 20.415C59.3952 19.8681 58.9488 19.4384 58.3461 19.1259C57.7546 18.8134 57.0068 18.6572 56.1028 18.6572C55.2323 18.6572 54.5068 18.7911 53.9265 19.059C53.3461 19.3157 52.9108 19.6672 52.6207 20.1137C52.3305 20.5489 52.1854 21.04 52.1854 21.5869C52.1854 21.9998 52.2858 22.3737 52.4867 22.7085C52.6988 23.0433 53.0113 23.3558 53.4242 23.646C53.8372 23.9362 54.345 24.2096 54.9477 24.4663C55.5503 24.723 56.2479 24.9741 57.0403 25.2197C58.3684 25.6215 59.5347 26.0735 60.5392 26.5757C61.5548 27.0779 62.403 27.6416 63.0838 28.2666C63.7646 28.8916 64.278 29.6003 64.624 30.3927C64.97 31.1851 65.143 32.0835 65.143 33.088C65.143 34.1483 64.9365 35.0969 64.5236 35.934C64.1106 36.771 63.5135 37.4797 62.7323 38.0601C61.951 38.6404 61.0191 39.0813 59.9365 39.3826C58.8539 39.684 57.643 39.8346 56.3037 39.8346C55.0983 39.8346 53.9097 39.6784 52.7378 39.3659C51.566 39.0422 50.5001 38.5567 49.5403 37.9094C48.5916 37.2621 47.8327 36.4362 47.2635 35.4317C46.6943 34.4273 46.4097 33.2387 46.4097 31.8659H51.4488C51.4488 32.6248 51.566 33.2666 51.8003 33.7911C52.0347 34.3157 52.364 34.7398 52.7881 35.0634C53.2233 35.3871 53.7367 35.6215 54.3282 35.7666C54.9309 35.9116 55.5894 35.9842 56.3037 35.9842C57.1742 35.9842 57.8885 35.8614 58.4465 35.6159C59.0157 35.3704 59.4343 35.03 59.7021 34.5947C59.9811 34.1594 60.1207 33.6683 60.1207 33.1215ZM67.4867 30.627V30.2755C67.4867 28.9474 67.6765 27.7253 68.0559 26.6092C68.4354 25.482 68.9878 24.5054 69.7133 23.6795C70.4387 22.8536 71.3316 22.2119 72.3919 21.7543C73.4521 21.2855 74.6686 21.0512 76.0414 21.0512C77.4142 21.0512 78.6363 21.2855 79.7077 21.7543C80.7791 22.2119 81.6776 22.8536 82.403 23.6795C83.1396 24.5054 83.6977 25.482 84.0771 26.6092C84.4566 27.7253 84.6463 28.9474 84.6463 30.2755V30.627C84.6463 31.944 84.4566 33.1661 84.0771 34.2933C83.6977 35.4094 83.1396 36.386 82.403 37.223C81.6776 38.0489 80.7847 38.6907 79.7245 39.1483C78.6642 39.6058 77.4477 39.8346 76.0749 39.8346C74.7021 39.8346 73.48 39.6058 72.4086 39.1483C71.3483 38.6907 70.4499 38.0489 69.7133 37.223C68.9878 36.386 68.4354 35.4094 68.0559 34.2933C67.6765 33.1661 67.4867 31.944 67.4867 30.627ZM72.3082 30.2755V30.627C72.3082 31.386 72.3751 32.0947 72.509 32.7532C72.643 33.4116 72.855 33.992 73.1452 34.4942C73.4465 34.9853 73.8372 35.3704 74.3171 35.6494C74.797 35.9284 75.3829 36.0679 76.0749 36.0679C76.7445 36.0679 77.3193 35.9284 77.7992 35.6494C78.2791 35.3704 78.6642 34.9853 78.9544 34.4942C79.2445 33.992 79.4566 33.4116 79.5905 32.7532C79.7356 32.0947 79.8082 31.386 79.8082 30.627V30.2755C79.8082 29.5389 79.7356 28.8469 79.5905 28.1996C79.4566 27.5411 79.239 26.9608 78.9376 26.4585C78.6474 25.9451 78.2624 25.5433 77.7825 25.2532C77.3026 24.963 76.7222 24.8179 76.0414 24.8179C75.3606 24.8179 74.7803 24.963 74.3003 25.2532C73.8316 25.5433 73.4465 25.9451 73.1452 26.4585C72.855 26.9608 72.643 27.5411 72.509 28.1996C72.3751 28.8469 72.3082 29.5389 72.3082 30.2755ZM92.4309 25.3369V39.4998H87.6095V21.386H92.1463L92.4309 25.3369ZM97.8885 21.2688L97.8048 25.7387C97.5704 25.7052 97.2858 25.6773 96.951 25.655C96.6274 25.6215 96.3316 25.6047 96.0637 25.6047C95.3829 25.6047 94.7914 25.694 94.2892 25.8726C93.7981 26.04 93.3852 26.2911 93.0503 26.6259C92.7267 26.9608 92.4811 27.3681 92.3137 27.848C92.1575 28.3279 92.0682 28.8748 92.0459 29.4887L91.0749 29.1873C91.0749 28.0154 91.1921 26.9384 91.4265 25.9563C91.6608 24.963 92.0012 24.098 92.4477 23.3614C92.9053 22.6248 93.4633 22.0556 94.1218 21.6538C94.7803 21.252 95.5336 21.0512 96.3818 21.0512C96.6497 21.0512 96.9231 21.0735 97.2021 21.1181C97.4811 21.1516 97.7099 21.2018 97.8885 21.2688ZM109.875 21.386V24.8012H99.3282V21.386H109.875ZM101.94 16.9161H106.761V34.0422C106.761 34.5668 106.828 34.9686 106.962 35.2476C107.107 35.5266 107.319 35.7219 107.598 35.8335C107.877 35.934 108.229 35.9842 108.653 35.9842C108.954 35.9842 109.222 35.973 109.457 35.9507C109.702 35.9172 109.909 35.8837 110.076 35.8503L110.093 39.3994C109.68 39.5333 109.233 39.6393 108.753 39.7175C108.274 39.7956 107.743 39.8346 107.163 39.8346C106.103 39.8346 105.176 39.6616 104.384 39.3157C103.603 38.9585 103 38.3893 102.576 37.6081C102.152 36.8268 101.94 35.8 101.94 34.5277V16.9161Z" fill="#39260E"/>
<path d="M60.1207 33.1215C60.1207 32.6862 60.0537 32.2956 59.9198 31.9496C59.797 31.5925 59.5626 31.2688 59.2166 30.9786C58.8707 30.6773 58.3852 30.3815 57.7602 30.0913C57.1352 29.8012 56.326 29.4998 55.3327 29.1873C54.2278 28.8302 53.1787 28.4284 52.1854 27.982C51.2032 27.5355 50.3327 27.0166 49.5738 26.425C48.826 25.8224 48.2345 25.1248 47.7992 24.3324C47.3751 23.54 47.1631 22.6192 47.1631 21.5701C47.1631 20.5545 47.3863 19.6337 47.8327 18.8079C48.2791 17.9708 48.9041 17.2565 49.7077 16.665C50.5113 16.0623 51.4599 15.5991 52.5537 15.2755C53.6586 14.9518 54.8695 14.79 56.1865 14.79C57.9834 14.79 59.5515 15.1137 60.8907 15.761C62.23 16.4083 63.268 17.2956 64.0046 18.4228C64.7524 19.55 65.1262 20.8391 65.1262 22.29H60.1374C60.1374 21.5757 59.9867 20.9507 59.6854 20.415C59.3952 19.8681 58.9488 19.4384 58.3461 19.1259C57.7546 18.8134 57.0068 18.6572 56.1028 18.6572C55.2323 18.6572 54.5068 18.7911 53.9265 19.059C53.3461 19.3157 52.9108 19.6672 52.6207 20.1137C52.3305 20.5489 52.1854 21.04 52.1854 21.5869C52.1854 21.9998 52.2858 22.3737 52.4867 22.7085C52.6988 23.0433 53.0113 23.3558 53.4242 23.646C53.8372 23.9362 54.345 24.2096 54.9477 24.4663C55.5503 24.723 56.2479 24.9741 57.0403 25.2197C58.3684 25.6215 59.5347 26.0735 60.5392 26.5757C61.5548 27.0779 62.403 27.6416 63.0838 28.2666C63.7646 28.8916 64.278 29.6003 64.624 30.3927C64.97 31.1851 65.143 32.0835 65.143 33.088C65.143 34.1483 64.9365 35.0969 64.5236 35.934C64.1106 36.771 63.5135 37.4797 62.7323 38.0601C61.951 38.6404 61.0191 39.0813 59.9365 39.3826C58.8539 39.684 57.643 39.8346 56.3037 39.8346C55.0983 39.8346 53.9097 39.6784 52.7378 39.3659C51.566 39.0422 50.5001 38.5567 49.5403 37.9094C48.5916 37.2621 47.8327 36.4362 47.2635 35.4317C46.6943 34.4273 46.4097 33.2387 46.4097 31.8659H51.4488C51.4488 32.6248 51.566 33.2666 51.8003 33.7911C52.0347 34.3157 52.364 34.7398 52.7881 35.0634C53.2233 35.3871 53.7367 35.6215 54.3282 35.7666C54.9309 35.9116 55.5894 35.9842 56.3037 35.9842C57.1742 35.9842 57.8885 35.8614 58.4465 35.6159C59.0157 35.3704 59.4343 35.03 59.7021 34.5947C59.9811 34.1594 60.1207 33.6683 60.1207 33.1215ZM67.4867 30.627V30.2755C67.4867 28.9474 67.6765 27.7253 68.0559 26.6092C68.4354 25.482 68.9878 24.5054 69.7133 23.6795C70.4387 22.8536 71.3316 22.2119 72.3919 21.7543C73.4521 21.2855 74.6686 21.0512 76.0414 21.0512C77.4142 21.0512 78.6363 21.2855 79.7077 21.7543C80.7791 22.2119 81.6776 22.8536 82.403 23.6795C83.1396 24.5054 83.6977 25.482 84.0771 26.6092C84.4566 27.7253 84.6463 28.9474 84.6463 30.2755V30.627C84.6463 31.944 84.4566 33.1661 84.0771 34.2933C83.6977 35.4094 83.1396 36.386 82.403 37.223C81.6776 38.0489 80.7847 38.6907 79.7245 39.1483C78.6642 39.6058 77.4477 39.8346 76.0749 39.8346C74.7021 39.8346 73.48 39.6058 72.4086 39.1483C71.3483 38.6907 70.4499 38.0489 69.7133 37.223C68.9878 36.386 68.4354 35.4094 68.0559 34.2933C67.6765 33.1661 67.4867 31.944 67.4867 30.627ZM72.3082 30.2755V30.627C72.3082 31.386 72.3751 32.0947 72.509 32.7532C72.643 33.4116 72.855 33.992 73.1452 34.4942C73.4465 34.9853 73.8372 35.3704 74.3171 35.6494C74.797 35.9284 75.3829 36.0679 76.0749 36.0679C76.7445 36.0679 77.3193 35.9284 77.7992 35.6494C78.2791 35.3704 78.6642 34.9853 78.9544 34.4942C79.2445 33.992 79.4566 33.4116 79.5905 32.7532C79.7356 32.0947 79.8082 31.386 79.8082 30.627V30.2755C79.8082 29.5389 79.7356 28.8469 79.5905 28.1996C79.4566 27.5411 79.239 26.9608 78.9376 26.4585C78.6474 25.9451 78.2624 25.5433 77.7825 25.2532C77.3026 24.963 76.7222 24.8179 76.0414 24.8179C75.3606 24.8179 74.7803 24.963 74.3003 25.2532C73.8316 25.5433 73.4465 25.9451 73.1452 26.4585C72.855 26.9608 72.643 27.5411 72.509 28.1996C72.3751 28.8469 72.3082 29.5389 72.3082 30.2755ZM92.4309 25.3369V39.4998H87.6095V21.386H92.1463L92.4309 25.3369ZM97.8885 21.2688L97.8048 25.7387C97.5704 25.7052 97.2858 25.6773 96.951 25.655C96.6274 25.6215 96.3316 25.6047 96.0637 25.6047C95.3829 25.6047 94.7914 25.694 94.2892 25.8726C93.7981 26.04 93.3852 26.2911 93.0503 26.6259C92.7267 26.9608 92.4811 27.3681 92.3137 27.848C92.1575 28.3279 92.0682 28.8748 92.0459 29.4887L91.0749 29.1873C91.0749 28.0154 91.1921 26.9384 91.4265 25.9563C91.6608 24.963 92.0012 24.098 92.4477 23.3614C92.9053 22.6248 93.4633 22.0556 94.1218 21.6538C94.7803 21.252 95.5336 21.0512 96.3818 21.0512C96.6497 21.0512 96.9231 21.0735 97.2021 21.1181C97.4811 21.1516 97.7099 21.2018 97.8885 21.2688ZM109.875 21.386V24.8012H99.3282V21.386H109.875ZM101.94 16.9161H106.761V34.0422C106.761 34.5668 106.828 34.9686 106.962 35.2476C107.107 35.5266 107.319 35.7219 107.598 35.8335C107.877 35.934 108.229 35.9842 108.653 35.9842C108.954 35.9842 109.222 35.973 109.457 35.9507C109.702 35.9172 109.909 35.8837 110.076 35.8503L110.093 39.3994C109.68 39.5333 109.233 39.6393 108.753 39.7175C108.274 39.7956 107.743 39.8346 107.163 39.8346C106.103 39.8346 105.176 39.6616 104.384 39.3157C103.603 38.9585 103 38.3893 102.576 37.6081C102.152 36.8268 101.94 35.8 101.94 34.5277V16.9161Z" fill="#39260E"/>
<path d="M60.1207 33.1215C60.1207 32.6862 60.0537 32.2956 59.9198 31.9496C59.797 31.5925 59.5626 31.2688 59.2166 30.9786C58.8707 30.6773 58.3852 30.3815 57.7602 30.0913C57.1352 29.8012 56.326 29.4998 55.3327 29.1873C54.2278 28.8302 53.1787 28.4284 52.1854 27.982C51.2032 27.5355 50.3327 27.0166 49.5738 26.425C48.826 25.8224 48.2345 25.1248 47.7992 24.3324C47.3751 23.54 47.1631 22.6192 47.1631 21.5701C47.1631 20.5545 47.3863 19.6337 47.8327 18.8079C48.2791 17.9708 48.9041 17.2565 49.7077 16.665C50.5113 16.0623 51.4599 15.5991 52.5537 15.2755C53.6586 14.9518 54.8695 14.79 56.1865 14.79C57.9834 14.79 59.5515 15.1137 60.8907 15.761C62.23 16.4083 63.268 17.2956 64.0046 18.4228C64.7524 19.55 65.1262 20.8391 65.1262 22.29H60.1374C60.1374 21.5757 59.9867 20.9507 59.6854 20.415C59.3952 19.8681 58.9488 19.4384 58.3461 19.1259C57.7546 18.8134 57.0068 18.6572 56.1028 18.6572C55.2323 18.6572 54.5068 18.7911 53.9265 19.059C53.3461 19.3157 52.9108 19.6672 52.6207 20.1137C52.3305 20.5489 52.1854 21.04 52.1854 21.5869C52.1854 21.9998 52.2858 22.3737 52.4867 22.7085C52.6988 23.0433 53.0113 23.3558 53.4242 23.646C53.8372 23.9362 54.345 24.2096 54.9477 24.4663C55.5503 24.723 56.2479 24.9741 57.0403 25.2197C58.3684 25.6215 59.5347 26.0735 60.5392 26.5757C61.5548 27.0779 62.403 27.6416 63.0838 28.2666C63.7646 28.8916 64.278 29.6003 64.624 30.3927C64.97 31.1851 65.143 32.0835 65.143 33.088C65.143 34.1483 64.9365 35.0969 64.5236 35.934C64.1106 36.771 63.5135 37.4797 62.7323 38.0601C61.951 38.6404 61.0191 39.0813 59.9365 39.3826C58.8539 39.684 57.643 39.8346 56.3037 39.8346C55.0983 39.8346 53.9097 39.6784 52.7378 39.3659C51.566 39.0422 50.5001 38.5567 49.5403 37.9094C48.5916 37.2621 47.8327 36.4362 47.2635 35.4317C46.6943 34.4273 46.4097 33.2387 46.4097 31.8659H51.4488C51.4488 32.6248 51.566 33.2666 51.8003 33.7911C52.0347 34.3157 52.364 34.7398 52.7881 35.0634C53.2233 35.3871 53.7367 35.6215 54.3282 35.7666C54.9309 35.9116 55.5894 35.9842 56.3037 35.9842C57.1742 35.9842 57.8885 35.8614 58.4465 35.6159C59.0157 35.3704 59.4343 35.03 59.7021 34.5947C59.9811 34.1594 60.1207 33.6683 60.1207 33.1215ZM67.4867 30.627V30.2755C67.4867 28.9474 67.6765 27.7253 68.0559 26.6092C68.4354 25.482 68.9878 24.5054 69.7133 23.6795C70.4387 22.8536 71.3316 22.2119 72.3919 21.7543C73.4521 21.2855 74.6686 21.0512 76.0414 21.0512C77.4142 21.0512 78.6363 21.2855 79.7077 21.7543C80.7791 22.2119 81.6776 22.8536 82.403 23.6795C83.1396 24.5054 83.6977 25.482 84.0771 26.6092C84.4566 27.7253 84.6463 28.9474 84.6463 30.2755V30.627C84.6463 31.944 84.4566 33.1661 84.0771 34.2933C83.6977 35.4094 83.1396 36.386 82.403 37.223C81.6776 38.0489 80.7847 38.6907 79.7245 39.1483C78.6642 39.6058 77.4477 39.8346 76.0749 39.8346C74.7021 39.8346 73.48 39.6058 72.4086 39.1483C71.3483 38.6907 70.4499 38.0489 69.7133 37.223C68.9878 36.386 68.4354 35.4094 68.0559 34.2933C67.6765 33.1661 67.4867 31.944 67.4867 30.627ZM72.3082 30.2755V30.627C72.3082 31.386 72.3751 32.0947 72.509 32.7532C72.643 33.4116 72.855 33.992 73.1452 34.4942C73.4465 34.9853 73.8372 35.3704 74.3171 35.6494C74.797 35.9284 75.3829 36.0679 76.0749 36.0679C76.7445 36.0679 77.3193 35.9284 77.7992 35.6494C78.2791 35.3704 78.6642 34.9853 78.9544 34.4942C79.2445 33.992 79.4566 33.4116 79.5905 32.7532C79.7356 32.0947 79.8082 31.386 79.8082 30.627V30.2755C79.8082 29.5389 79.7356 28.8469 79.5905 28.1996C79.4566 27.5411 79.239 26.9608 78.9376 26.4585C78.6474 25.9451 78.2624 25.5433 77.7825 25.2532C77.3026 24.963 76.7222 24.8179 76.0414 24.8179C75.3606 24.8179 74.7803 24.963 74.3003 25.2532C73.8316 25.5433 73.4465 25.9451 73.1452 26.4585C72.855 26.9608 72.643 27.5411 72.509 28.1996C72.3751 28.8469 72.3082 29.5389 72.3082 30.2755ZM92.4309 25.3369V39.4998H87.6095V21.386H92.1463L92.4309 25.3369ZM97.8885 21.2688L97.8048 25.7387C97.5704 25.7052 97.2858 25.6773 96.951 25.655C96.6274 25.6215 96.3316 25.6047 96.0637 25.6047C95.3829 25.6047 94.7914 25.694 94.2892 25.8726C93.7981 26.04 93.3852 26.2911 93.0503 26.6259C92.7267 26.9608 92.4811 27.3681 92.3137 27.848C92.1575 28.3279 92.0682 28.8748 92.0459 29.4887L91.0749 29.1873C91.0749 28.0154 91.1921 26.9384 91.4265 25.9563C91.6608 24.963 92.0012 24.098 92.4477 23.3614C92.9053 22.6248 93.4633 22.0556 94.1218 21.6538C94.7803 21.252 95.5336 21.0512 96.3818 21.0512C96.6497 21.0512 96.9231 21.0735 97.2021 21.1181C97.4811 21.1516 97.7099 21.2018 97.8885 21.2688ZM109.875 21.386V24.8012H99.3282V21.386H109.875ZM101.94 16.9161H106.761V34.0422C106.761 34.5668 106.828 34.9686 106.962 35.2476C107.107 35.5266 107.319 35.7219 107.598 35.8335C107.877 35.934 108.229 35.9842 108.653 35.9842C108.954 35.9842 109.222 35.973 109.457 35.9507C109.702 35.9172 109.909 35.8837 110.076 35.8503L110.093 39.3994C109.68 39.5333 109.233 39.6393 108.753 39.7175C108.274 39.7956 107.743 39.8346 107.163 39.8346C106.103 39.8346 105.176 39.6616 104.384 39.3157C103.603 38.9585 103 38.3893 102.576 37.6081C102.152 36.8268 101.94 35.8 101.94 34.5277V16.9161Z" fill="#FFC856"/>
<path d="M61.1918 32.0502C61.1918 31.6149 61.1249 31.2243 60.9909 30.8783C60.8682 30.5212 60.6338 30.1975 60.2878 29.9073C59.9418 29.606 59.4563 29.3102 58.8313 29.02C58.2063 28.7299 57.3972 28.4285 56.4039 28.116C55.299 27.7589 54.2499 27.3571 53.2566 26.9107C52.2744 26.4642 51.4039 25.9453 50.6449 25.3538C49.8972 24.7511 49.3057 24.0535 48.8704 23.2611C48.4463 22.4687 48.2342 21.5479 48.2342 20.4988C48.2342 19.4832 48.4574 18.5625 48.9039 17.7366C49.3503 16.8995 49.9753 16.1852 50.7789 15.5937C51.5824 14.991 52.5311 14.5279 53.6249 14.2042C54.7298 13.8805 55.9407 13.7187 57.2577 13.7187C59.0545 13.7187 60.6226 14.0424 61.9619 14.6897C63.3012 15.337 64.3391 16.2243 65.0758 17.3515C65.8235 18.4788 66.1974 19.7678 66.1974 21.2187H61.2086C61.2086 20.5044 61.0579 19.8794 60.7566 19.3437C60.4664 18.7968 60.0199 18.3671 59.4173 18.0546C58.8258 17.7421 58.078 17.5859 57.174 17.5859C56.3034 17.5859 55.578 17.7198 54.9976 17.9877C54.4173 18.2444 53.982 18.5959 53.6918 19.0424C53.4016 19.4776 53.2566 19.9687 53.2566 20.5156C53.2566 20.9285 53.357 21.3024 53.5579 21.6372C53.7699 21.9721 54.0824 22.2846 54.4954 22.5747C54.9083 22.8649 55.4162 23.1383 56.0188 23.395C56.6215 23.6517 57.3191 23.9029 58.1115 24.1484C59.4396 24.5502 60.6059 25.0022 61.6103 25.5044C62.626 26.0067 63.4742 26.5703 64.155 27.1953C64.8358 27.8203 65.3492 28.529 65.6952 29.3214C66.0412 30.1138 66.2141 31.0122 66.2141 32.0167C66.2141 33.077 66.0077 34.0256 65.5947 34.8627C65.1818 35.6997 64.5847 36.4084 63.8034 36.9888C63.0222 37.5692 62.0903 38.01 61.0077 38.3113C59.9251 38.6127 58.7141 38.7633 57.3749 38.7633C56.1695 38.7633 54.9809 38.6071 53.809 38.2946C52.6371 37.9709 51.5713 37.4854 50.6115 36.8381C49.6628 36.1908 48.9039 35.3649 48.3347 34.3604C47.7655 33.356 47.4809 32.1674 47.4809 30.7946H52.5199C52.5199 31.5535 52.6371 32.1953 52.8715 32.7198C53.1059 33.2444 53.4351 33.6685 53.8592 33.9921C54.2945 34.3158 54.8079 34.5502 55.3994 34.6953C56.0021 34.8404 56.6606 34.9129 57.3749 34.9129C58.2454 34.9129 58.9597 34.7901 59.5177 34.5446C60.0869 34.2991 60.5054 33.9587 60.7733 33.5234C61.0523 33.0881 61.1918 32.5971 61.1918 32.0502ZM68.5579 29.5558V29.2042C68.5579 27.8761 68.7476 26.654 69.1271 25.5379C69.5066 24.4107 70.059 23.4341 70.7845 22.6082C71.5099 21.7823 72.4028 21.1406 73.463 20.683C74.5233 20.2142 75.7398 19.9799 77.1126 19.9799C78.4853 19.9799 79.7074 20.2142 80.7789 20.683C81.8503 21.1406 82.7487 21.7823 83.4742 22.6082C84.2108 23.4341 84.7688 24.4107 85.1483 25.5379C85.5278 26.654 85.7175 27.8761 85.7175 29.2042V29.5558C85.7175 30.8727 85.5278 32.0948 85.1483 33.2221C84.7688 34.3381 84.2108 35.3147 83.4742 36.1517C82.7487 36.9776 81.8559 37.6194 80.7956 38.077C79.7353 38.5346 78.5188 38.7633 77.1461 38.7633C75.7733 38.7633 74.5512 38.5346 73.4798 38.077C72.4195 37.6194 71.5211 36.9776 70.7845 36.1517C70.059 35.3147 69.5066 34.3381 69.1271 33.2221C68.7476 32.0948 68.5579 30.8727 68.5579 29.5558ZM73.3793 29.2042V29.5558C73.3793 30.3147 73.4463 31.0234 73.5802 31.6819C73.7141 32.3404 73.9262 32.9207 74.2164 33.4229C74.5177 33.914 74.9083 34.2991 75.3883 34.5781C75.8682 34.8571 76.4541 34.9966 77.1461 34.9966C77.8157 34.9966 78.3905 34.8571 78.8704 34.5781C79.3503 34.2991 79.7353 33.914 80.0255 33.4229C80.3157 32.9207 80.5278 32.3404 80.6617 31.6819C80.8068 31.0234 80.8793 30.3147 80.8793 29.5558V29.2042C80.8793 28.4676 80.8068 27.7756 80.6617 27.1283C80.5278 26.4698 80.3101 25.8895 80.0088 25.3872C79.7186 24.8738 79.3336 24.4721 78.8537 24.1819C78.3737 23.8917 77.7934 23.7466 77.1126 23.7466C76.4318 23.7466 75.8514 23.8917 75.3715 24.1819C74.9028 24.4721 74.5177 24.8738 74.2164 25.3872C73.9262 25.8895 73.7141 26.4698 73.5802 27.1283C73.4463 27.7756 73.3793 28.4676 73.3793 29.2042ZM93.5021 24.2656V38.4285H88.6807V20.3147H93.2175L93.5021 24.2656ZM98.9597 20.1975L98.876 24.6674C98.6416 24.6339 98.357 24.606 98.0222 24.5837C97.6985 24.5502 97.4028 24.5334 97.1349 24.5334C96.4541 24.5334 95.8626 24.6227 95.3604 24.8013C94.8693 24.9687 94.4563 25.2198 94.1215 25.5546C93.7979 25.8895 93.5523 26.2968 93.3849 26.7767C93.2287 27.2567 93.1394 27.8035 93.117 28.4174L92.1461 28.116C92.1461 26.9442 92.2633 25.8671 92.4976 24.885C92.732 23.8917 93.0724 23.0267 93.5188 22.2901C93.9764 21.5535 94.5345 20.9843 95.1929 20.5825C95.8514 20.1808 96.6048 19.9799 97.453 19.9799C97.7208 19.9799 97.9943 20.0022 98.2733 20.0468C98.5523 20.0803 98.7811 20.1305 98.9597 20.1975ZM110.946 20.3147V23.7299H100.399V20.3147H110.946ZM103.011 15.8448H107.832V32.9709C107.832 33.4955 107.899 33.8973 108.033 34.1763C108.178 34.4553 108.39 34.6506 108.669 34.7622C108.949 34.8627 109.3 34.9129 109.724 34.9129C110.026 34.9129 110.293 34.9017 110.528 34.8794C110.773 34.8459 110.98 34.8125 111.147 34.779L111.164 38.3281C110.751 38.462 110.305 38.568 109.825 38.6462C109.345 38.7243 108.815 38.7633 108.234 38.7633C107.174 38.7633 106.248 38.5904 105.455 38.2444C104.674 37.8872 104.071 37.318 103.647 36.5368C103.223 35.7555 103.011 34.7288 103.011 33.4564V15.8448Z" fill="#39260E"/>
<path d="M61.1918 32.0502C61.1918 31.6149 61.1249 31.2243 60.9909 30.8783C60.8682 30.5212 60.6338 30.1975 60.2878 29.9073C59.9418 29.606 59.4563 29.3102 58.8313 29.02C58.2063 28.7299 57.3972 28.4285 56.4039 28.116C55.299 27.7589 54.2499 27.3571 53.2566 26.9107C52.2744 26.4642 51.4039 25.9453 50.6449 25.3538C49.8972 24.7511 49.3057 24.0535 48.8704 23.2611C48.4463 22.4687 48.2342 21.5479 48.2342 20.4988C48.2342 19.4832 48.4574 18.5625 48.9039 17.7366C49.3503 16.8995 49.9753 16.1852 50.7789 15.5937C51.5824 14.991 52.5311 14.5279 53.6249 14.2042C54.7298 13.8805 55.9407 13.7187 57.2577 13.7187C59.0545 13.7187 60.6226 14.0424 61.9619 14.6897C63.3012 15.337 64.3391 16.2243 65.0758 17.3515C65.8235 18.4788 66.1974 19.7678 66.1974 21.2187H61.2086C61.2086 20.5044 61.0579 19.8794 60.7566 19.3437C60.4664 18.7968 60.0199 18.3671 59.4173 18.0546C58.8258 17.7421 58.078 17.5859 57.174 17.5859C56.3034 17.5859 55.578 17.7198 54.9976 17.9877C54.4173 18.2444 53.982 18.5959 53.6918 19.0424C53.4016 19.4776 53.2566 19.9687 53.2566 20.5156C53.2566 20.9285 53.357 21.3024 53.5579 21.6372C53.7699 21.9721 54.0824 22.2846 54.4954 22.5747C54.9083 22.8649 55.4162 23.1383 56.0188 23.395C56.6215 23.6517 57.3191 23.9029 58.1115 24.1484C59.4396 24.5502 60.6059 25.0022 61.6103 25.5044C62.626 26.0067 63.4742 26.5703 64.155 27.1953C64.8358 27.8203 65.3492 28.529 65.6952 29.3214C66.0412 30.1138 66.2141 31.0122 66.2141 32.0167C66.2141 33.077 66.0077 34.0256 65.5947 34.8627C65.1818 35.6997 64.5847 36.4084 63.8034 36.9888C63.0222 37.5692 62.0903 38.01 61.0077 38.3113C59.9251 38.6127 58.7141 38.7633 57.3749 38.7633C56.1695 38.7633 54.9809 38.6071 53.809 38.2946C52.6371 37.9709 51.5713 37.4854 50.6115 36.8381C49.6628 36.1908 48.9039 35.3649 48.3347 34.3604C47.7655 33.356 47.4809 32.1674 47.4809 30.7946H52.5199C52.5199 31.5535 52.6371 32.1953 52.8715 32.7198C53.1059 33.2444 53.4351 33.6685 53.8592 33.9921C54.2945 34.3158 54.8079 34.5502 55.3994 34.6953C56.0021 34.8404 56.6606 34.9129 57.3749 34.9129C58.2454 34.9129 58.9597 34.7901 59.5177 34.5446C60.0869 34.2991 60.5054 33.9587 60.7733 33.5234C61.0523 33.0881 61.1918 32.5971 61.1918 32.0502ZM68.5579 29.5558V29.2042C68.5579 27.8761 68.7476 26.654 69.1271 25.5379C69.5066 24.4107 70.059 23.4341 70.7845 22.6082C71.5099 21.7823 72.4028 21.1406 73.463 20.683C74.5233 20.2142 75.7398 19.9799 77.1126 19.9799C78.4853 19.9799 79.7074 20.2142 80.7789 20.683C81.8503 21.1406 82.7487 21.7823 83.4742 22.6082C84.2108 23.4341 84.7688 24.4107 85.1483 25.5379C85.5278 26.654 85.7175 27.8761 85.7175 29.2042V29.5558C85.7175 30.8727 85.5278 32.0948 85.1483 33.2221C84.7688 34.3381 84.2108 35.3147 83.4742 36.1517C82.7487 36.9776 81.8559 37.6194 80.7956 38.077C79.7353 38.5346 78.5188 38.7633 77.1461 38.7633C75.7733 38.7633 74.5512 38.5346 73.4798 38.077C72.4195 37.6194 71.5211 36.9776 70.7845 36.1517C70.059 35.3147 69.5066 34.3381 69.1271 33.2221C68.7476 32.0948 68.5579 30.8727 68.5579 29.5558ZM73.3793 29.2042V29.5558C73.3793 30.3147 73.4463 31.0234 73.5802 31.6819C73.7141 32.3404 73.9262 32.9207 74.2164 33.4229C74.5177 33.914 74.9083 34.2991 75.3883 34.5781C75.8682 34.8571 76.4541 34.9966 77.1461 34.9966C77.8157 34.9966 78.3905 34.8571 78.8704 34.5781C79.3503 34.2991 79.7353 33.914 80.0255 33.4229C80.3157 32.9207 80.5278 32.3404 80.6617 31.6819C80.8068 31.0234 80.8793 30.3147 80.8793 29.5558V29.2042C80.8793 28.4676 80.8068 27.7756 80.6617 27.1283C80.5278 26.4698 80.3101 25.8895 80.0088 25.3872C79.7186 24.8738 79.3336 24.4721 78.8537 24.1819C78.3737 23.8917 77.7934 23.7466 77.1126 23.7466C76.4318 23.7466 75.8514 23.8917 75.3715 24.1819C74.9028 24.4721 74.5177 24.8738 74.2164 25.3872C73.9262 25.8895 73.7141 26.4698 73.5802 27.1283C73.4463 27.7756 73.3793 28.4676 73.3793 29.2042ZM93.5021 24.2656V38.4285H88.6807V20.3147H93.2175L93.5021 24.2656ZM98.9597 20.1975L98.876 24.6674C98.6416 24.6339 98.357 24.606 98.0222 24.5837C97.6985 24.5502 97.4028 24.5334 97.1349 24.5334C96.4541 24.5334 95.8626 24.6227 95.3604 24.8013C94.8693 24.9687 94.4563 25.2198 94.1215 25.5546C93.7979 25.8895 93.5523 26.2968 93.3849 26.7767C93.2287 27.2567 93.1394 27.8035 93.117 28.4174L92.1461 28.116C92.1461 26.9442 92.2633 25.8671 92.4976 24.885C92.732 23.8917 93.0724 23.0267 93.5188 22.2901C93.9764 21.5535 94.5345 20.9843 95.1929 20.5825C95.8514 20.1808 96.6048 19.9799 97.453 19.9799C97.7208 19.9799 97.9943 20.0022 98.2733 20.0468C98.5523 20.0803 98.7811 20.1305 98.9597 20.1975ZM110.946 20.3147V23.7299H100.399V20.3147H110.946ZM103.011 15.8448H107.832V32.9709C107.832 33.4955 107.899 33.8973 108.033 34.1763C108.178 34.4553 108.39 34.6506 108.669 34.7622C108.949 34.8627 109.3 34.9129 109.724 34.9129C110.026 34.9129 110.293 34.9017 110.528 34.8794C110.773 34.8459 110.98 34.8125 111.147 34.779L111.164 38.3281C110.751 38.462 110.305 38.568 109.825 38.6462C109.345 38.7243 108.815 38.7633 108.234 38.7633C107.174 38.7633 106.248 38.5904 105.455 38.2444C104.674 37.8872 104.071 37.318 103.647 36.5368C103.223 35.7555 103.011 34.7288 103.011 33.4564V15.8448Z" fill="#39260E"/>
<path d="M61.1918 32.0502C61.1918 31.6149 61.1249 31.2243 60.9909 30.8783C60.8682 30.5212 60.6338 30.1975 60.2878 29.9073C59.9418 29.606 59.4563 29.3102 58.8313 29.02C58.2063 28.7299 57.3972 28.4285 56.4039 28.116C55.299 27.7589 54.2499 27.3571 53.2566 26.9107C52.2744 26.4642 51.4039 25.9453 50.6449 25.3538C49.8972 24.7511 49.3057 24.0535 48.8704 23.2611C48.4463 22.4687 48.2342 21.5479 48.2342 20.4988C48.2342 19.4832 48.4574 18.5625 48.9039 17.7366C49.3503 16.8995 49.9753 16.1852 50.7789 15.5937C51.5824 14.991 52.5311 14.5279 53.6249 14.2042C54.7298 13.8805 55.9407 13.7187 57.2577 13.7187C59.0545 13.7187 60.6226 14.0424 61.9619 14.6897C63.3012 15.337 64.3391 16.2243 65.0758 17.3515C65.8235 18.4788 66.1974 19.7678 66.1974 21.2187H61.2086C61.2086 20.5044 61.0579 19.8794 60.7566 19.3437C60.4664 18.7968 60.0199 18.3671 59.4173 18.0546C58.8258 17.7421 58.078 17.5859 57.174 17.5859C56.3034 17.5859 55.578 17.7198 54.9976 17.9877C54.4173 18.2444 53.982 18.5959 53.6918 19.0424C53.4016 19.4776 53.2566 19.9687 53.2566 20.5156C53.2566 20.9285 53.357 21.3024 53.5579 21.6372C53.7699 21.9721 54.0824 22.2846 54.4954 22.5747C54.9083 22.8649 55.4162 23.1383 56.0188 23.395C56.6215 23.6517 57.3191 23.9029 58.1115 24.1484C59.4396 24.5502 60.6059 25.0022 61.6103 25.5044C62.626 26.0067 63.4742 26.5703 64.155 27.1953C64.8358 27.8203 65.3492 28.529 65.6952 29.3214C66.0412 30.1138 66.2141 31.0122 66.2141 32.0167C66.2141 33.077 66.0077 34.0256 65.5947 34.8627C65.1818 35.6997 64.5847 36.4084 63.8034 36.9888C63.0222 37.5692 62.0903 38.01 61.0077 38.3113C59.9251 38.6127 58.7141 38.7633 57.3749 38.7633C56.1695 38.7633 54.9809 38.6071 53.809 38.2946C52.6371 37.9709 51.5713 37.4854 50.6115 36.8381C49.6628 36.1908 48.9039 35.3649 48.3347 34.3604C47.7655 33.356 47.4809 32.1674 47.4809 30.7946H52.5199C52.5199 31.5535 52.6371 32.1953 52.8715 32.7198C53.1059 33.2444 53.4351 33.6685 53.8592 33.9921C54.2945 34.3158 54.8079 34.5502 55.3994 34.6953C56.0021 34.8404 56.6606 34.9129 57.3749 34.9129C58.2454 34.9129 58.9597 34.7901 59.5177 34.5446C60.0869 34.2991 60.5054 33.9587 60.7733 33.5234C61.0523 33.0881 61.1918 32.5971 61.1918 32.0502ZM68.5579 29.5558V29.2042C68.5579 27.8761 68.7476 26.654 69.1271 25.5379C69.5066 24.4107 70.059 23.4341 70.7845 22.6082C71.5099 21.7823 72.4028 21.1406 73.463 20.683C74.5233 20.2142 75.7398 19.9799 77.1126 19.9799C78.4853 19.9799 79.7074 20.2142 80.7789 20.683C81.8503 21.1406 82.7487 21.7823 83.4742 22.6082C84.2108 23.4341 84.7688 24.4107 85.1483 25.5379C85.5278 26.654 85.7175 27.8761 85.7175 29.2042V29.5558C85.7175 30.8727 85.5278 32.0948 85.1483 33.2221C84.7688 34.3381 84.2108 35.3147 83.4742 36.1517C82.7487 36.9776 81.8559 37.6194 80.7956 38.077C79.7353 38.5346 78.5188 38.7633 77.1461 38.7633C75.7733 38.7633 74.5512 38.5346 73.4798 38.077C72.4195 37.6194 71.5211 36.9776 70.7845 36.1517C70.059 35.3147 69.5066 34.3381 69.1271 33.2221C68.7476 32.0948 68.5579 30.8727 68.5579 29.5558ZM73.3793 29.2042V29.5558C73.3793 30.3147 73.4463 31.0234 73.5802 31.6819C73.7141 32.3404 73.9262 32.9207 74.2164 33.4229C74.5177 33.914 74.9083 34.2991 75.3883 34.5781C75.8682 34.8571 76.4541 34.9966 77.1461 34.9966C77.8157 34.9966 78.3905 34.8571 78.8704 34.5781C79.3503 34.2991 79.7353 33.914 80.0255 33.4229C80.3157 32.9207 80.5278 32.3404 80.6617 31.6819C80.8068 31.0234 80.8793 30.3147 80.8793 29.5558V29.2042C80.8793 28.4676 80.8068 27.7756 80.6617 27.1283C80.5278 26.4698 80.3101 25.8895 80.0088 25.3872C79.7186 24.8738 79.3336 24.4721 78.8537 24.1819C78.3737 23.8917 77.7934 23.7466 77.1126 23.7466C76.4318 23.7466 75.8514 23.8917 75.3715 24.1819C74.9028 24.4721 74.5177 24.8738 74.2164 25.3872C73.9262 25.8895 73.7141 26.4698 73.5802 27.1283C73.4463 27.7756 73.3793 28.4676 73.3793 29.2042ZM93.5021 24.2656V38.4285H88.6807V20.3147H93.2175L93.5021 24.2656ZM98.9597 20.1975L98.876 24.6674C98.6416 24.6339 98.357 24.606 98.0222 24.5837C97.6985 24.5502 97.4028 24.5334 97.1349 24.5334C96.4541 24.5334 95.8626 24.6227 95.3604 24.8013C94.8693 24.9687 94.4563 25.2198 94.1215 25.5546C93.7979 25.8895 93.5523 26.2968 93.3849 26.7767C93.2287 27.2567 93.1394 27.8035 93.117 28.4174L92.1461 28.116C92.1461 26.9442 92.2633 25.8671 92.4976 24.885C92.732 23.8917 93.0724 23.0267 93.5188 22.2901C93.9764 21.5535 94.5345 20.9843 95.1929 20.5825C95.8514 20.1808 96.6048 19.9799 97.453 19.9799C97.7208 19.9799 97.9943 20.0022 98.2733 20.0468C98.5523 20.0803 98.7811 20.1305 98.9597 20.1975ZM110.946 20.3147V23.7299H100.399V20.3147H110.946ZM103.011 15.8448H107.832V32.9709C107.832 33.4955 107.899 33.8973 108.033 34.1763C108.178 34.4553 108.39 34.6506 108.669 34.7622C108.949 34.8627 109.3 34.9129 109.724 34.9129C110.026 34.9129 110.293 34.9017 110.528 34.8794C110.773 34.8459 110.98 34.8125 111.147 34.779L111.164 38.3281C110.751 38.462 110.305 38.568 109.825 38.6462C109.345 38.7243 108.815 38.7633 108.234 38.7633C107.174 38.7633 106.248 38.5904 105.455 38.2444C104.674 37.8872 104.071 37.318 103.647 36.5368C103.223 35.7555 103.011 34.7288 103.011 33.4564V15.8448Z" fill="#39260E"/>
<defs>
<linearGradient id="paint0_linear_1_1161" x1="82.5" y1="0" x2="82.5" y2="54.6429" gradientUnits="userSpaceOnUse">
<stop stop-color="#DEA41A"/>
<stop offset="1" stop-color="#BF870D"/>
</linearGradient>
</defs>
</svg>
