<svg width="126" height="23" viewBox="0 0 126 23" fill="none" xmlns="http://www.w3.org/2000/svg">
<path d="M38.7988 3.78125V18H36.4258V3.78125H38.7988ZM43.6035 9.68945V18H41.3281V7.43359H43.4668L43.6035 9.68945ZM43.1934 12.3359H42.4707C42.4642 11.5742 42.5456 10.8809 42.7148 10.2559C42.8841 9.63086 43.125 9.09375 43.4375 8.64453C43.7565 8.19531 44.1341 7.85026 44.5703 7.60938C45.013 7.36198 45.5046 7.23828 46.0449 7.23828C46.4616 7.23828 46.8424 7.3099 47.1875 7.45312C47.5391 7.58984 47.8385 7.81445 48.0859 8.12695C48.3333 8.43945 48.5221 8.84635 48.6523 9.34766C48.7891 9.84896 48.8574 10.4609 48.8574 11.1836V18H46.582V11.1641C46.582 10.6693 46.5267 10.2786 46.416 9.99219C46.3118 9.69922 46.1556 9.49089 45.9473 9.36719C45.7389 9.23698 45.4753 9.17188 45.1562 9.17188C44.8633 9.17188 44.5931 9.25651 44.3457 9.42578C44.1048 9.58854 43.8965 9.81641 43.7207 10.1094C43.5514 10.3958 43.4212 10.7311 43.3301 11.1152C43.2389 11.4928 43.1934 11.8997 43.1934 12.3359ZM54.0918 16.1055L56.0449 7.43359H58.3984L55.3906 18H53.9355L54.0918 16.1055ZM52.7051 7.43359L54.7266 16.1348L54.8242 18H53.3789L50.3516 7.43359H52.7051ZM64.6777 15.8516V10.5879C64.6777 10.2233 64.6257 9.93034 64.5215 9.70898C64.4238 9.48763 64.2773 9.32812 64.082 9.23047C63.8932 9.1263 63.6556 9.07422 63.3691 9.07422C63.0697 9.07422 62.8158 9.13607 62.6074 9.25977C62.4056 9.38346 62.2526 9.55273 62.1484 9.76758C62.0443 9.97591 61.9922 10.2168 61.9922 10.4902H59.7168C59.7168 10.0671 59.8014 9.66016 59.9707 9.26953C60.1465 8.87891 60.3971 8.5306 60.7227 8.22461C61.0482 7.91862 61.4421 7.67773 61.9043 7.50195C62.3665 7.32617 62.8809 7.23828 63.4473 7.23828C64.1243 7.23828 64.7266 7.35221 65.2539 7.58008C65.7812 7.80143 66.1947 8.16276 66.4941 8.66406C66.8001 9.15885 66.9531 9.8099 66.9531 10.6172V15.5488C66.9531 16.0371 66.9824 16.4733 67.041 16.8574C67.1061 17.235 67.194 17.5638 67.3047 17.8438V18H64.9902C64.8861 17.7461 64.8079 17.4206 64.7559 17.0234C64.7038 16.6263 64.6777 16.2357 64.6777 15.8516ZM64.9805 11.5645L64.9902 13.0391H63.8965C63.571 13.0391 63.278 13.0846 63.0176 13.1758C62.7572 13.2604 62.5358 13.3841 62.3535 13.5469C62.1777 13.7031 62.041 13.8952 61.9434 14.123C61.8522 14.3509 61.8066 14.6016 61.8066 14.875C61.8066 15.207 61.8522 15.4772 61.9434 15.6855C62.041 15.8939 62.181 16.0501 62.3633 16.1543C62.5521 16.252 62.7799 16.3008 63.0469 16.3008C63.4115 16.3008 63.7272 16.2227 63.9941 16.0664C64.2676 15.9036 64.4759 15.7083 64.6191 15.4805C64.7689 15.2526 64.8275 15.0443 64.7949 14.8555L65.3125 15.8027C65.2604 16.0501 65.1628 16.3105 65.0195 16.584C64.8828 16.8574 64.7038 17.1178 64.4824 17.3652C64.2611 17.6126 63.9941 17.8145 63.6816 17.9707C63.3691 18.1204 63.0078 18.1953 62.5977 18.1953C62.0052 18.1953 61.4779 18.0716 61.0156 17.8242C60.5534 17.5768 60.1888 17.222 59.9219 16.7598C59.6615 16.291 59.5312 15.7311 59.5312 15.0801C59.5312 14.5527 59.6191 14.0742 59.7949 13.6445C59.9707 13.2148 60.2311 12.847 60.5762 12.541C60.9212 12.2285 61.3542 11.9876 61.875 11.8184C62.4023 11.6491 63.0176 11.5645 63.7207 11.5645H64.9805ZM71.6992 3V18H69.4238V3H71.6992ZM76.543 7.43359V18H74.2676V7.43359H76.543ZM74.1504 4.66992C74.1504 4.30534 74.2611 4.0026 74.4824 3.76172C74.7038 3.51432 75.013 3.39062 75.4102 3.39062C75.8073 3.39062 76.1165 3.51432 76.3379 3.76172C76.5592 4.0026 76.6699 4.30534 76.6699 4.66992C76.6699 5.02148 76.5592 5.31771 76.3379 5.55859C76.1165 5.79948 75.8073 5.91992 75.4102 5.91992C75.013 5.91992 74.7038 5.79948 74.4824 5.55859C74.2611 5.31771 74.1504 5.02148 74.1504 4.66992ZM84.2871 15.793V3H86.5625V18L84.502 18.0098L84.2871 15.793ZM78.6133 13.1465V12.3164C78.6133 11.4505 78.6914 10.7018 78.8477 10.0703C79.0039 9.43229 79.2318 8.90169 79.5312 8.47852C79.8372 8.05534 80.2051 7.74284 80.6348 7.54102C81.0645 7.33919 81.5495 7.23828 82.0898 7.23828C82.6172 7.23828 83.0729 7.35872 83.457 7.59961C83.8411 7.83398 84.1667 8.16927 84.4336 8.60547C84.7005 9.04167 84.9121 9.5625 85.0684 10.168C85.2311 10.7669 85.3418 11.4375 85.4004 12.1797V13.332C85.3288 14.0482 85.2148 14.7057 85.0586 15.3047C84.9023 15.8971 84.6908 16.4082 84.4238 16.8379C84.1569 17.2676 83.8281 17.6029 83.4375 17.8438C83.0534 18.0781 82.6009 18.1953 82.0801 18.1953C81.5397 18.1953 81.0547 18.0879 80.625 17.873C80.2018 17.6582 79.8372 17.3392 79.5312 16.916C79.2318 16.4928 79.0039 15.9688 78.8477 15.3438C78.6914 14.7122 78.6133 13.9798 78.6133 13.1465ZM80.8887 12.3164V13.1465C80.8887 13.6868 80.9212 14.1523 80.9863 14.543C81.0514 14.9336 81.1556 15.2559 81.2988 15.5098C81.4421 15.7572 81.6309 15.9427 81.8652 16.0664C82.0996 16.1836 82.3828 16.2422 82.7148 16.2422C83.1315 16.2422 83.4701 16.138 83.7305 15.9297C83.9974 15.7214 84.2025 15.4414 84.3457 15.0898C84.4954 14.7318 84.5996 14.3346 84.6582 13.8984V11.623C84.6257 11.278 84.5605 10.959 84.4629 10.666C84.3652 10.3665 84.2383 10.1061 84.082 9.88477C83.9258 9.66341 83.7337 9.49089 83.5059 9.36719C83.2845 9.23698 83.0241 9.17188 82.7246 9.17188C82.3926 9.17188 82.1094 9.23698 81.875 9.36719C81.6406 9.49089 81.4518 9.68294 81.3086 9.94336C81.1654 10.1973 81.0579 10.5228 80.9863 10.9199C80.9212 11.3105 80.8887 11.776 80.8887 12.3164Z" fill="white"/>
<path d="M93.584 12.3848V12.2188C93.584 10.8255 93.7207 9.5625 93.9941 8.42969C94.2676 7.29036 94.6159 6.29427 95.0391 5.44141C95.4688 4.58203 95.9245 3.8724 96.4062 3.3125C96.888 2.7526 97.3405 2.3457 97.7637 2.0918L98.2031 3.46875C97.9036 3.7487 97.6009 4.13607 97.2949 4.63086C96.9954 5.11914 96.7188 5.72135 96.4648 6.4375C96.2109 7.15365 96.0059 7.99023 95.8496 8.94727C95.6999 9.9043 95.625 10.9883 95.625 12.1992V12.4043C95.625 13.6152 95.6999 14.6992 95.8496 15.6562C96.0059 16.6133 96.2109 17.4531 96.4648 18.1758C96.7188 18.8984 96.9954 19.5072 97.2949 20.002C97.6009 20.5033 97.9036 20.9036 98.2031 21.2031L97.7637 22.5117C97.3405 22.2578 96.888 21.8509 96.4062 21.291C95.9245 20.7311 95.4688 20.0215 95.0391 19.1621C94.6159 18.3092 94.2676 17.3164 93.9941 16.1836C93.7207 15.0508 93.584 13.7845 93.584 12.3848ZM107.695 14.123C107.695 15.0085 107.523 15.7539 107.178 16.3594C106.839 16.9648 106.37 17.4238 105.771 17.7363C105.179 18.0423 104.508 18.1953 103.76 18.1953C103.005 18.1953 102.327 18.0423 101.729 17.7363C101.136 17.4238 100.664 16.9648 100.312 16.3594C99.9674 15.7474 99.7949 15.002 99.7949 14.123C99.7949 13.5371 99.8926 13.0033 100.088 12.5215C100.283 12.0397 100.557 11.6263 100.908 11.2812C101.26 10.9297 101.676 10.6595 102.158 10.4707C102.64 10.2819 103.167 10.1875 103.74 10.1875C104.502 10.1875 105.179 10.3535 105.771 10.6855C106.37 11.0176 106.839 11.4798 107.178 12.0723C107.523 12.6582 107.695 13.3418 107.695 14.123ZM105.43 13.9961C105.43 13.5273 105.358 13.1172 105.215 12.7656C105.078 12.4076 104.883 12.1341 104.629 11.9453C104.382 11.75 104.085 11.6523 103.74 11.6523C103.395 11.6523 103.096 11.75 102.842 11.9453C102.594 12.1341 102.402 12.4076 102.266 12.7656C102.135 13.1172 102.07 13.5273 102.07 13.9961C102.07 14.4714 102.135 14.8815 102.266 15.2266C102.402 15.5651 102.594 15.8255 102.842 16.0078C103.096 16.1901 103.402 16.2812 103.76 16.2812C104.111 16.2812 104.411 16.1901 104.658 16.0078C104.912 15.8255 105.104 15.5651 105.234 15.2266C105.365 14.8815 105.43 14.4714 105.43 13.9961ZM107.451 7.52148C107.451 8.23763 107.292 8.8724 106.973 9.42578C106.654 9.97917 106.217 10.4121 105.664 10.7246C105.111 11.0371 104.476 11.1934 103.76 11.1934C103.037 11.1934 102.396 11.0371 101.836 10.7246C101.276 10.4121 100.837 9.97917 100.518 9.42578C100.205 8.86589 100.049 8.23112 100.049 7.52148C100.049 6.67513 100.205 5.96224 100.518 5.38281C100.837 4.79688 101.276 4.35091 101.836 4.04492C102.396 3.73893 103.034 3.58594 103.75 3.58594C104.479 3.58594 105.12 3.73893 105.674 4.04492C106.227 4.35091 106.66 4.79688 106.973 5.38281C107.292 5.96875 107.451 6.68164 107.451 7.52148ZM105.176 7.60938C105.176 7.19271 105.12 6.82812 105.01 6.51562C104.899 6.19661 104.736 5.94922 104.521 5.77344C104.313 5.59115 104.059 5.5 103.76 5.5C103.46 5.5 103.203 5.58464 102.988 5.75391C102.78 5.92318 102.617 6.16732 102.5 6.48633C102.383 6.79883 102.324 7.17318 102.324 7.60938C102.324 8.03906 102.38 8.41341 102.49 8.73242C102.607 9.05143 102.773 9.30208 102.988 9.48438C103.203 9.66016 103.46 9.74805 103.76 9.74805C104.059 9.74805 104.313 9.66016 104.521 9.48438C104.736 9.30208 104.899 9.05143 105.01 8.73242C105.12 8.41341 105.176 8.03906 105.176 7.60938ZM117.725 9.69922V12.0234C117.725 13.1367 117.63 14.0872 117.441 14.875C117.253 15.6562 116.982 16.291 116.631 16.7793C116.279 17.2676 115.863 17.6257 115.381 17.8535C114.899 18.0814 114.359 18.1953 113.76 18.1953C113.291 18.1953 112.852 18.1237 112.441 17.9805C112.031 17.8372 111.66 17.6126 111.328 17.3066C111.003 17.0007 110.723 16.6068 110.488 16.125C110.254 15.6367 110.075 15.054 109.951 14.377C109.827 13.6999 109.766 12.9154 109.766 12.0234V9.69922C109.766 8.57943 109.863 7.63542 110.059 6.86719C110.254 6.09245 110.527 5.46419 110.879 4.98242C111.23 4.49414 111.647 4.13932 112.129 3.91797C112.617 3.69661 113.158 3.58594 113.75 3.58594C114.219 3.58594 114.658 3.65755 115.068 3.80078C115.479 3.9375 115.846 4.1556 116.172 4.45508C116.497 4.75456 116.777 5.14518 117.012 5.62695C117.246 6.10221 117.422 6.67839 117.539 7.35547C117.663 8.02604 117.725 8.80729 117.725 9.69922ZM115.459 12.3652V9.33789C115.459 8.77799 115.433 8.2832 115.381 7.85352C115.329 7.42383 115.257 7.05924 115.166 6.75977C115.075 6.46029 114.958 6.2194 114.814 6.03711C114.678 5.84831 114.518 5.71159 114.336 5.62695C114.16 5.53581 113.965 5.49023 113.75 5.49023C113.483 5.49023 113.242 5.55859 113.027 5.69531C112.819 5.83203 112.64 6.05339 112.49 6.35938C112.347 6.65885 112.236 7.05599 112.158 7.55078C112.08 8.03906 112.041 8.63477 112.041 9.33789V12.3652C112.041 12.9316 112.067 13.4297 112.119 13.8594C112.171 14.2891 112.246 14.6602 112.344 14.9727C112.441 15.2786 112.559 15.5293 112.695 15.7246C112.832 15.9134 112.988 16.0534 113.164 16.1445C113.346 16.2357 113.545 16.2812 113.76 16.2812C114.033 16.2812 114.274 16.2096 114.482 16.0664C114.697 15.9232 114.876 15.6986 115.02 15.3926C115.163 15.0801 115.27 14.6732 115.342 14.1719C115.42 13.6706 115.459 13.0684 115.459 12.3652ZM123.984 12.2188V12.3848C123.984 13.7585 123.848 15.0117 123.574 16.1445C123.301 17.2773 122.946 18.2734 122.51 19.1328C122.074 19.9922 121.608 20.7051 121.113 21.2715C120.625 21.8444 120.163 22.2578 119.727 22.5117L119.287 21.2031C119.58 20.9232 119.876 20.5326 120.176 20.0312C120.482 19.5365 120.762 18.9245 121.016 18.1953C121.276 17.4727 121.481 16.6296 121.631 15.666C121.787 14.7025 121.865 13.6152 121.865 12.4043V12.1992C121.865 10.9883 121.784 9.90104 121.621 8.9375C121.465 7.97396 121.253 7.13086 120.986 6.4082C120.726 5.68555 120.446 5.07682 120.146 4.58203C119.847 4.08073 119.561 3.6901 119.287 3.41016L119.727 2.10156C120.163 2.34896 120.625 2.75911 121.113 3.33203C121.608 3.90495 122.074 4.62109 122.51 5.48047C122.946 6.33984 123.301 7.33594 123.574 8.46875C123.848 9.59505 123.984 10.8451 123.984 12.2188Z" fill="#FF3320"/>
<circle cx="11" cy="11" r="10.5" fill="#A22D09" stroke="#E97878"/>
<path d="M6.7381 13.9107C6.36565 14.3185 6.39431 14.951 6.80211 15.3235C7.20991 15.6959 7.84243 15.6673 8.21487 15.2595L6.7381 13.9107ZM14.7619 8.09106C15.1344 7.68326 15.1057 7.05074 14.6979 6.67829C14.2901 6.30584 13.6576 6.3345 13.2851 6.7423L14.7619 8.09106ZM8.21487 15.2595L14.7619 8.09106L13.2851 6.7423L6.7381 13.9107L8.21487 15.2595Z" fill="white"/>
<path d="M7.93563 6.92001C7.53673 6.53804 6.90372 6.55177 6.52175 6.95067C6.13979 7.34957 6.15351 7.98258 6.55241 8.36455L7.93563 6.92001ZM13.5644 15.0789C13.9633 15.4608 14.5963 15.4471 14.9783 15.0482C15.3602 14.6493 15.3465 14.0163 14.9476 13.6343L13.5644 15.0789ZM6.55241 8.36455L13.5644 15.0789L14.9476 13.6343L7.93563 6.92001L6.55241 8.36455Z" fill="white"/>
</svg>
